<svg width="65" height="60" viewBox="0 0 65 60" fill="none" xmlns="http://www.w3.org/2000/svg">
<path d="M19.5 28.9922V37.9922C19.5 44.8222 24.799 50.4272 31.5 50.9412V55.9922H24.5V57.9922H40.5V55.9922H33.5V50.9412C40.201 50.4272 45.5 44.8222 45.5 37.9922V28.9922H43.5V30.9922H41.5V23.9922C41.5 19.0292 37.462 14.9922 32.5 14.9922C27.538 14.9922 23.5 19.0292 23.5 23.9922V30.9922H21.5V28.9922H19.5ZM25.5 32.9922H39.5V37.9922C39.5 41.8512 36.36 44.9922 32.5 44.9922C28.64 44.9922 25.5 41.8512 25.5 37.9922V32.9922ZM43.5 32.9922V37.9922C43.5 43.7202 39.098 48.4342 33.5 48.9412V46.9332C37.993 46.4342 41.5 42.6172 41.5 37.9922V32.9922H43.5ZM32.5 16.9922C36.36 16.9922 39.5 20.1332 39.5 23.9922V30.9922H25.5V23.9922C25.5 20.1332 28.64 16.9922 32.5 16.9922ZM23.5 32.9922V37.9922C23.5 42.6172 27.007 46.4342 31.5 46.9332V48.9412C25.902 48.4342 21.5 43.7202 21.5 37.9922V32.9922H23.5Z" fill="#DFDFDF"/>
<path d="M31.5 18.9922H33.5V20.9922H31.5V18.9922Z" fill="#DFDFDF"/>
<path d="M31.5 22.9922H33.5V24.9922H31.5V22.9922Z" fill="#DFDFDF"/>
<path d="M27.5 22.9922H29.5V24.9922H27.5V22.9922Z" fill="#DFDFDF"/>
<path d="M35.5 22.9922H37.5V24.9922H35.5V22.9922Z" fill="#DFDFDF"/>
<path d="M31.5 26.9922H33.5V28.9922H31.5V26.9922Z" fill="#DFDFDF"/>
<path d="M27.5 26.9922H29.5V28.9922H27.5V26.9922Z" fill="#DFDFDF"/>
<path d="M35.5 26.9922H37.5V28.9922H35.5V26.9922Z" fill="#DFDFDF"/>
<path d="M28.9648 12.458L30.3788 13.872C30.9419 13.3101 31.7048 12.9944 32.5003 12.9944C33.2958 12.9944 34.0588 13.3101 34.6218 13.872L36.0358 12.458C35.0974 11.5219 33.8259 10.9961 32.5003 10.9961C31.1748 10.9961 29.9033 11.5219 28.9648 12.458Z" fill="#DFDFDF"/>
<path d="M40.0338 9.33425C35.8798 5.18025 29.1188 5.18025 24.9648 9.33425L26.3788 10.7483C29.7538 7.37325 35.2448 7.37325 38.6198 10.7483L40.0338 9.33425Z" fill="#DFDFDF"/>
<path d="M43.3741 6.50241C37.3771 0.504406 27.6181 0.504406 21.6211 6.50241L23.0351 7.91641C28.2531 2.69941 36.7421 2.69941 41.9601 7.91641L43.3741 6.50241Z" fill="#DFDFDF"/>
</svg>
