<svg width="44" height="44" viewBox="0 0 44 44" fill="none" xmlns="http://www.w3.org/2000/svg">
<path d="M31.1923 11.2812C30.8173 10.9062 30.1533 10.9062 29.7783 11.2812L9.41298 31.6475L9.41017 31.6503L9.40718 31.6533C9.40553 31.655 9.4051 31.6572 9.40352 31.6588C9.32234 31.7408 9.26143 31.8399 9.21254 31.9464C9.20064 31.9723 9.18935 31.9968 9.17983 32.0234C9.17122 32.0472 9.15719 32.0681 9.15035 32.0928L7.03609 39.7207C6.94039 40.0684 7.03804 40.4404 7.29293 40.6953C7.48336 40.8857 7.73824 40.9883 7.99996 40.9883C8.08883 40.9883 8.17867 40.9766 8.26754 40.9521L15.8955 38.8379C15.9201 38.831 15.941 38.817 15.9648 38.8084C15.9914 38.7988 16.016 38.7876 16.0419 38.7757C16.1484 38.7268 16.2474 38.6659 16.3294 38.5847C16.3311 38.5831 16.3333 38.5827 16.3349 38.5811L16.3379 38.5781L16.3407 38.5753L36.707 18.21C36.8945 18.0225 37 17.7681 37 17.5029C37 17.2378 36.8945 16.9834 36.707 16.7959L31.1923 11.2812ZM27.0742 16.8135L31.1747 20.914L15.6279 36.46L11.5283 32.3603L27.0742 16.8135ZM9.43551 38.5527L10.6201 34.2803L13.708 37.3682L9.43551 38.5527ZM32.5888 19.4999L28.4883 15.3995L30.4853 13.4023L34.5859 17.5029L32.5888 19.4999Z" fill="#DFDFDF"/>
</svg>
